<?xml version="1.0" standalone="no"?>
<!DOCTYPE svg PUBLIC "-//W3C//DTD SVG 20010904//EN"
 "http://www.w3.org/TR/2001/REC-SVG-20010904/DTD/svg10.dtd">
<svg version="1.0" xmlns="http://www.w3.org/2000/svg"
 width="3124.000000pt" height="1469.000000pt" viewBox="0 0 3124.000000 1469.000000"
 preserveAspectRatio="xMidYMid meet">

<g transform="translate(0.000000,1469.000000) scale(0.100000,-0.100000)"
fill="#000000" stroke="none">
<path d="M2545 14684 c-16 -2 -73 -9 -125 -15 -406 -46 -833 -205 -1183 -439
-644 -433 -1062 -1101 -1168 -1870 -19 -135 -16 -517 5 -705 89 -783 373
-1269 976 -1675 414 -278 936 -493 1910 -786 460 -139 696 -216 935 -306 576
-217 956 -431 1197 -673 255 -255 358 -543 358 -996 0 -281 -47 -521 -156
-792 -300 -746 -912 -1208 -1764 -1331 -484 -70 -966 -30 -1360 114 -142 51
-380 174 -521 269 -475 318 -883 822 -1163 1437 -51 111 -143 346 -162 412 -2
9 -43 12 -159 12 l-155 0 0 -1235 0 -1235 128 0 127 0 300 300 299 299 61 -57
c313 -299 870 -551 1435 -651 406 -72 893 -80 1305 -20 652 94 1157 329 1569
729 361 351 611 786 765 1332 138 484 178 960 125 1478 -41 407 -161 775 -352
1084 -278 450 -743 836 -1332 1107 -340 156 -603 245 -1225 414 -237 64 -523
143 -638 176 -1019 292 -1462 548 -1681 969 -98 189 -139 369 -139 610 0 166
18 287 64 424 175 523 649 960 1254 1160 246 81 436 110 710 110 511 -1 929
-141 1335 -447 121 -92 334 -302 439 -435 240 -303 450 -697 578 -1082 l46
-140 149 0 148 0 0 1115 0 1115 -118 0 -118 0 -263 -190 c-144 -104 -264 -190
-266 -190 -2 0 -53 32 -112 71 -223 146 -615 321 -900 403 -324 93 -547 126
-878 131 -137 2 -263 1 -280 -1z"/>
<path d="M18615 14684 c-253 -27 -438 -65 -645 -134 -1005 -330 -1727 -1219
-1831 -2255 -14 -147 -7 -497 15 -676 57 -465 184 -817 403 -1114 89 -121 303
-332 435 -430 419 -311 1012 -572 1903 -840 831 -249 1147 -360 1525 -534 694
-322 1003 -650 1086 -1156 26 -153 26 -499 0 -635 -87 -472 -280 -863 -576
-1174 -322 -337 -764 -554 -1290 -635 -528 -82 -1029 -35 -1460 135 -742 294
-1371 1003 -1730 1949 l-56 150 -155 0 -154 0 0 -1230 0 -1230 120 -3 120 -2
299 299 300 300 65 -58 c171 -150 336 -259 556 -366 447 -219 926 -328 1495
-342 941 -23 1706 233 2249 751 497 476 818 1191 906 2021 17 164 20 557 4
725 -34 377 -113 677 -253 965 -124 254 -256 436 -465 646 -242 242 -502 424
-863 605 -361 181 -662 286 -1373 479 -605 164 -755 207 -995 286 -953 314
-1334 656 -1416 1273 -21 158 -14 341 20 486 195 846 1170 1472 2166 1391 461
-38 845 -190 1205 -475 414 -329 783 -889 980 -1490 l43 -131 146 -3 146 -3 0
1116 0 1115 -115 0 -115 0 -228 -168 c-125 -92 -242 -178 -260 -191 l-32 -23
-83 55 c-404 266 -935 461 -1447 532 -111 16 -555 28 -645 19z"/>
<path d="M9115 9935 l-1540 -4655 -567 0 -568 0 0 -175 0 -175 1405 0 1405 0
0 175 0 175 -610 0 c-335 0 -610 3 -610 6 0 9 988 3046 1000 3072 l10 22 1356
0 1356 0 10 -27 c6 -16 225 -712 487 -1548 l476 -1520 -577 -3 -578 -2 0 -175
0 -175 1805 0 1805 0 0 175 0 175 -501 2 -501 3 -1472 4652 -1471 4653 -290 0
-290 0 -1540 -4655z m1908 774 c328 -1043 597 -1901 597 -1908 0 -8 -313 -11
-1220 -11 -969 0 -1220 3 -1220 13 0 24 1235 3816 1241 3809 3 -4 274 -860
602 -1903z"/>
<path d="M26626 14328 c-47 -145 -740 -2238 -1540 -4653 l-1453 -4390 -567 -3
-566 -2 0 -175 0 -175 1400 0 1400 0 0 175 0 175 -605 0 c-390 0 -605 3 -605
10 0 5 221 688 490 1517 270 830 496 1523 501 1541 l11 32 1361 -2 1361 -3
483 -1540 c266 -847 483 -1543 483 -1547 0 -5 -259 -8 -575 -8 l-575 0 0 -175
0 -175 1805 0 1805 0 0 175 0 175 -502 2 -503 3 -1470 4650 -1471 4650 -291 3
-291 2 -86 -262z m469 -3634 c327 -1040 595 -1894 595 -1898 0 -3 -552 -6
-1226 -6 -1162 0 -1225 1 -1220 18 3 9 249 766 546 1682 298 916 575 1771 617
1900 58 178 78 230 84 215 5 -11 276 -871 604 -1911z"/>
<path d="M23335 2554 c-11 -2 -45 -9 -75 -15 -202 -40 -392 -201 -477 -404
-52 -123 -54 -157 -50 -890 3 -760 -1 -715 78 -875 54 -109 169 -227 274 -282
132 -69 204 -83 420 -82 213 0 267 10 390 69 136 66 242 172 310 310 72 145
70 121 70 895 0 631 -2 701 -18 760 -64 238 -234 414 -472 490 -59 19 -97 23
-250 26 -99 1 -189 1 -200 -2z m280 -300 c124 -32 225 -115 283 -233 l37 -75
3 -645 c3 -621 2 -648 -17 -711 -61 -201 -274 -334 -480 -301 -144 23 -267
114 -332 246 l-34 70 0 670 0 671 37 75 c94 191 300 286 503 233z"/>
<path d="M6992 1268 l3 -1223 167 -3 168 -2 2 1018 3 1018 316 -1015 316
-1016 158 0 159 0 320 1012 321 1013 3 -1015 2 -1015 165 0 165 0 0 1225 0
1225 -262 -2 -262 -3 -288 -940 c-158 -517 -295 -964 -303 -994 -9 -29 -18
-51 -21 -49 -2 3 -136 450 -298 994 l-293 989 -272 3 -271 2 2 -1222z"/>
<path d="M11030 1270 l0 -1220 165 0 165 0 0 1220 0 1220 -165 0 -165 0 0
-1220z"/>
<path d="M13070 1270 l0 -1220 620 0 621 0 -3 153 -3 152 -447 3 -448 2 0
1065 0 1065 -170 0 -170 0 0 -1220z"/>
<path d="M16140 1288 c-211 -662 -385 -1213 -388 -1225 l-4 -23 168 0 169 0
101 303 101 302 449 0 449 0 91 -300 91 -300 186 -3 c140 -2 187 1 187 10 0 9
-390 1214 -721 2226 l-70 212 -213 0 -213 0 -383 -1202z m779 246 l179 -589
-361 -3 c-198 -1 -362 0 -365 3 -3 2 78 270 179 594 100 325 184 589 186 587
2 -2 84 -268 182 -592z"/>
<path d="M19330 1270 l0 -1220 155 0 155 0 2 910 3 910 465 -910 465 -909 223
-1 222 0 0 1220 0 1220 -155 0 -155 0 -2 -988 -3 -989 -446 986 -445 986 -242
3 -242 2 0 -1220z"/>
</g>
</svg>
