<svg width="23" height="27" viewBox="0 0 23 27" fill="none" xmlns="http://www.w3.org/2000/svg">
<path fill-rule="evenodd" clip-rule="evenodd" d="M1.61179 1.06992C0.708374 1.97334 0.708374 3.42559 0.708374 6.33317V20.2082C0.708374 23.1158 0.708374 24.568 1.61179 25.4714C2.51521 26.3748 3.96746 26.3748 6.87504 26.3748H16.125C19.0326 26.3748 20.4849 26.3748 21.3883 25.4714C22.2917 24.568 22.2917 23.1158 22.2917 20.2082V6.33317C22.2917 3.42559 22.2917 1.97334 21.3883 1.06992C20.4849 0.166504 19.0326 0.166504 16.125 0.166504H6.87504C3.96746 0.166504 2.51521 0.166504 1.61179 1.06992ZM6.87504 6.33317C6.46617 6.33317 6.07404 6.4956 5.78492 6.78471C5.4958 7.07383 5.33337 7.46596 5.33337 7.87484C5.33337 8.28371 5.4958 8.67584 5.78492 8.96496C6.07404 9.25408 6.46617 9.4165 6.87504 9.4165H16.125C16.5339 9.4165 16.926 9.25408 17.2152 8.96496C17.5043 8.67584 17.6667 8.28371 17.6667 7.87484C17.6667 7.46596 17.5043 7.07383 17.2152 6.78471C16.926 6.4956 16.5339 6.33317 16.125 6.33317H6.87504ZM6.87504 12.4998C6.46617 12.4998 6.07404 12.6623 5.78492 12.9514C5.4958 13.2405 5.33337 13.6326 5.33337 14.0415C5.33337 14.4504 5.4958 14.8425 5.78492 15.1316C6.07404 15.4207 6.46617 15.5832 6.87504 15.5832H16.125C16.5339 15.5832 16.926 15.4207 17.2152 15.1316C17.5043 14.8425 17.6667 14.4504 17.6667 14.0415C17.6667 13.6326 17.5043 13.2405 17.2152 12.9514C16.926 12.6623 16.5339 12.4998 16.125 12.4998H6.87504ZM6.87504 18.6665C6.46617 18.6665 6.07404 18.8289 5.78492 19.118C5.4958 19.4072 5.33337 19.7993 5.33337 20.2082C5.33337 20.617 5.4958 21.0092 5.78492 21.2983C6.07404 21.5874 6.46617 21.7498 6.87504 21.7498H13.0417C13.4506 21.7498 13.8427 21.5874 14.1318 21.2983C14.4209 21.0092 14.5834 20.617 14.5834 20.2082C14.5834 19.7993 14.4209 19.4072 14.1318 19.118C13.8427 18.8289 13.4506 18.6665 13.0417 18.6665H6.87504Z" fill="#2AE286"/>
</svg>
